<?xml version="1.0" standalone="no"?><!DOCTYPE svg PUBLIC "-//W3C//DTD SVG 1.1//EN" "http://www.w3.org/Graphics/SVG/1.1/DTD/svg11.dtd"><svg t="1737362164414" class="icon" viewBox="0 0 1024 1024" version="1.1" xmlns="http://www.w3.org/2000/svg" p-id="15390" xmlns:xlink="http://www.w3.org/1999/xlink" width="32" height="32"><path d="M1002.315595 501.157647c0 276.781176-224.376471 501.157647-501.157647 501.157647C224.376772 1002.315294 0.000301 777.938824 0.000301 501.157647 0.000301 224.376471 224.376772 0 501.157948 0c276.781176 0 501.157647 224.376471 501.157647 501.157647" fill="#4C86C6" p-id="15391"></path><path d="M1001.502419 473.328941h-89.690353a34.816 34.816 0 0 1 0-69.632h80.926118A498.537412 498.537412 0 0 0 897.717007 194.921412H609.942889C552.779595 194.921412 502.904772 238.953412 501.218184 296.116706a104.387765 104.387765 0 0 0 104.357647 107.580235h180.946823a34.846118 34.846118 0 0 1 0 69.632h-23.491765c-57.133176 0-106.977882 44.062118-108.724705 101.195294a104.417882 104.417882 0 0 0 104.387764 107.610353h209.79953a500.043294 500.043294 0 0 0 33.008941-208.805647" fill="#31EC7C" p-id="15392"></path><path d="M501.097713 685.869176c-1.716706-57.133176-51.561412-101.195294-108.724706-101.195294H104.418184a34.816 34.816 0 1 1 0-69.571764h37.376c57.163294 0 107.038118-44.092235 108.724705-101.195294a104.417882 104.417882 0 0 0-104.357647-107.640471H39.303831A499.651765 499.651765 0 0 0 0.000301 501.157647c0 109.146353 34.996706 210.070588 94.208 292.352h302.531765c58.729412 0 106.134588-48.489412 104.357647-107.610353" fill="#31EC7C" p-id="15393"></path><path d="M305.875125 39.454118A113.603765 113.603765 0 0 0 234.014419 13.914353H113.995595A114.025412 114.025412 0 0 0 0.000301 127.939765a114.025412 114.025412 0 0 0 76.318118 107.52 503.115294 503.115294 0 0 1 229.586823-196.005647" fill="#B9CFDF" p-id="15394"></path><path d="M234.014419 241.935059a113.995294 113.995294 0 0 0 71.890823-202.480941 502.964706 502.964706 0 0 0-229.586823 195.975529c11.806118 4.156235 24.455529 6.505412 37.707294 6.505412H234.014419z" fill="#1565B2" p-id="15395"></path><path d="M941.267125 740.954353a503.265882 503.265882 0 0 1-143.23953 163.870118h120.771765a83.486118 83.486118 0 0 0 22.467765-163.84" fill="#B9CFDF" p-id="15396"></path><path d="M941.267125 740.954353a84.028235 84.028235 0 0 0-22.497883-3.132235h-264.493176a83.486118 83.486118 0 1 0 0 167.002353h143.751529a503.265882 503.265882 0 0 0 143.23953-163.84" fill="#1565B2" p-id="15397"></path><path d="M772.608301 501.157647H424.598889a76.559059 76.559059 0 1 1 0-153.148235h348.009412a76.559059 76.559059 0 1 1 0 153.118117M404.570654 835.252706h-140.950588a54.814118 54.814118 0 0 1 0-109.628235h140.950588a54.844235 54.844235 0 0 1 0 109.628235" fill="#FFFFFF" p-id="15398"></path></svg>